<svg xmlns="http://www.w3.org/2000/svg" width="11" height="7" viewBox="0 0 11 7" fill="none">
<path d="M5.48699 7C5.33709 7.00019 5.18886 6.96788 5.05221 6.90524C4.91557 6.8426 4.79364 6.75107 4.69457 6.63674L0.198049 1.44313C0.0559297 1.27103 -0.0142839 1.04925 0.00242152 0.825231C0.0191269 0.601207 0.121425 0.392716 0.287443 0.244339C0.45346 0.0959611 0.670018 0.0194738 0.890812 0.0312323C1.11161 0.0429908 1.31911 0.142062 1.46895 0.307261L5.40083 4.84888C5.41159 4.86134 5.42483 4.87133 5.43969 4.87818C5.45455 4.88502 5.47068 4.88856 5.48699 4.88856C5.50331 4.88856 5.51943 4.88502 5.53429 4.87818C5.54915 4.87133 5.5624 4.86134 5.57316 4.84888L9.50503 0.307261C9.57756 0.219439 9.66662 0.147235 9.767 0.0948911C9.86737 0.0425475 9.97703 0.011121 10.0895 0.00245887C10.202 -0.00620323 10.3151 0.00807375 10.4221 0.0444507C10.5291 0.0808276 10.6278 0.138571 10.7126 0.214285C10.7973 0.29 10.8662 0.382159 10.9154 0.485346C10.9646 0.588532 10.9929 0.700664 10.9988 0.81515C11.0047 0.929636 10.9881 1.04417 10.9498 1.15201C10.9115 1.25985 10.8524 1.35883 10.7759 1.44313L6.28079 6.63488C6.18155 6.74949 6.05944 6.84132 5.92257 6.90427C5.78571 6.96722 5.63723 6.99985 5.48699 7Z" fill="white"/>
</svg>