<svg width="68" height="69" viewBox="0 0 68 69" fill="none" xmlns="http://www.w3.org/2000/svg">
<path d="M31.6819 37.944C31.6819 38.5307 31.8632 38.9947 32.2259 39.336C32.5992 39.6667 33.1912 39.832 34.0019 39.832C34.8019 39.832 35.3885 39.6613 35.7619 39.32C36.1459 38.968 36.3379 38.4987 36.3379 37.912C36.3379 37.6453 36.2952 37.4053 36.2099 37.192C36.1352 36.968 36.0072 36.776 35.8259 36.616C35.6445 36.456 35.4045 36.3333 35.1059 36.248C34.8072 36.152 34.4392 36.104 34.0019 36.104C33.5432 36.104 33.1645 36.1573 32.8659 36.264C32.5672 36.36 32.3272 36.4933 32.1459 36.664C31.9752 36.824 31.8525 37.016 31.7779 37.24C31.7139 37.464 31.6819 37.6987 31.6819 37.944ZM31.8899 32.856C31.8899 33.464 32.0552 33.912 32.3859 34.2C32.7272 34.4773 33.2659 34.616 34.0019 34.616C34.7379 34.616 35.2659 34.4667 35.5859 34.168C35.9059 33.8693 36.0659 33.4213 36.0659 32.824C36.0659 32.5893 36.0285 32.3653 35.9539 32.152C35.8899 31.9387 35.7725 31.752 35.6019 31.592C35.4419 31.432 35.2285 31.304 34.9619 31.208C34.7059 31.112 34.3859 31.064 34.0019 31.064C33.6179 31.064 33.2872 31.1173 33.0099 31.224C32.7432 31.32 32.5245 31.4533 32.3539 31.624C32.1939 31.784 32.0765 31.9707 32.0019 32.184C31.9272 32.3973 31.8899 32.6213 31.8899 32.856ZM31.6979 35.32C31.2285 35.1067 30.8552 34.7867 30.5779 34.36C30.3005 33.9227 30.1619 33.384 30.1619 32.744C30.1619 32.3173 30.2365 31.9173 30.3859 31.544C30.5352 31.16 30.7645 30.8293 31.0739 30.552C31.3939 30.2747 31.7939 30.056 32.2739 29.896C32.7539 29.7253 33.3245 29.64 33.9859 29.64C34.6685 29.64 35.2499 29.7253 35.7299 29.896C36.2205 30.056 36.6205 30.28 36.9299 30.568C37.2392 30.8453 37.4632 31.176 37.6019 31.56C37.7405 31.9333 37.8099 32.3333 37.8099 32.76C37.8099 33.4 37.6712 33.928 37.3939 34.344C37.1165 34.76 36.7432 35.0747 36.2739 35.288C36.5085 35.3947 36.7379 35.528 36.9619 35.688C37.1859 35.848 37.3832 36.04 37.5539 36.264C37.7352 36.4773 37.8739 36.7227 37.9699 37C38.0765 37.2773 38.1299 37.592 38.1299 37.944C38.1299 38.9573 37.7832 39.768 37.0899 40.376C36.4072 40.984 35.3725 41.288 33.9859 41.288C32.5885 41.288 31.5539 40.984 30.8819 40.376C30.2099 39.768 29.8739 38.9573 29.8739 37.944C29.8739 37.6027 29.9272 37.2933 30.0339 37.016C30.1405 36.7387 30.2792 36.4933 30.4499 36.28C30.6205 36.056 30.8125 35.864 31.0259 35.704C31.2499 35.544 31.4739 35.416 31.6979 35.32Z" fill="black"/>
<rect x="10.5002" y="11.2842" width="47" height="47" stroke="#CFCEC4"/>
<rect x="33.9412" y="1.55086" width="47" height="47" transform="rotate(45 33.9412 1.55086)" stroke="#CFCEC4"/>
</svg>
