<svg width="68" height="69" viewBox="0 0 68 69" fill="none" xmlns="http://www.w3.org/2000/svg">
<path d="M30.1616 39.576C30.9723 38.8613 31.719 38.2267 32.4016 37.672C33.095 37.1067 33.687 36.5787 34.1776 36.088C34.679 35.5867 35.0683 35.1013 35.3456 34.632C35.6336 34.152 35.7776 33.6293 35.7776 33.064C35.7776 32.4987 35.6176 32.056 35.2976 31.736C34.9883 31.4053 34.5616 31.24 34.0176 31.24C33.3563 31.24 32.8603 31.384 32.5296 31.672C32.199 31.9493 31.9536 32.424 31.7936 33.096L30.0496 32.856C30.1456 32.4293 30.279 32.024 30.4496 31.64C30.631 31.2453 30.8763 30.904 31.1856 30.616C31.5056 30.3173 31.895 30.0827 32.3536 29.912C32.823 29.7307 33.3883 29.64 34.0496 29.64C35.2336 29.64 36.135 29.944 36.7536 30.552C37.3723 31.1493 37.6816 31.9493 37.6816 32.952C37.6816 33.5813 37.5643 34.1467 37.3296 34.648C37.1056 35.1387 36.7803 35.624 36.3536 36.104C35.9376 36.584 35.431 37.0853 34.8336 37.608C34.247 38.12 33.5856 38.712 32.8496 39.384H37.8256L37.6016 41H30.1616V39.864V39.576Z" fill="black"/>
<rect x="10.5" y="11.2842" width="47" height="47" stroke="#CFCEC4"/>
<rect x="33.9409" y="1.55086" width="47" height="47" transform="rotate(45 33.9409 1.55086)" stroke="#CFCEC4"/>
</svg>
