<svg width="45" height="45" viewBox="0 0 45 45" fill="none" xmlns="http://www.w3.org/2000/svg">
<path d="M20.1212 25.932C20.7292 25.396 21.2892 24.92 21.8012 24.504C22.3212 24.08 22.7652 23.684 23.1332 23.316C23.5092 22.94 23.8012 22.576 24.0092 22.224C24.2252 21.864 24.3332 21.472 24.3332 21.048C24.3332 20.624 24.2132 20.292 23.9732 20.052C23.7412 19.804 23.4212 19.68 23.0132 19.68C22.5172 19.68 22.1452 19.788 21.8972 20.004C21.6492 20.212 21.4652 20.568 21.3452 21.072L20.0372 20.892C20.1092 20.572 20.2092 20.268 20.3372 19.98C20.4732 19.684 20.6572 19.428 20.8892 19.212C21.1292 18.988 21.4212 18.812 21.7652 18.684C22.1172 18.548 22.5412 18.48 23.0372 18.48C23.9252 18.48 24.6012 18.708 25.0652 19.164C25.5292 19.612 25.7612 20.212 25.7612 20.964C25.7612 21.436 25.6732 21.86 25.4972 22.236C25.3292 22.604 25.0852 22.968 24.7652 23.328C24.4532 23.688 24.0732 24.064 23.6252 24.456C23.1852 24.84 22.6892 25.284 22.1372 25.788H25.8692L25.7012 27H20.1212V26.148V25.932Z" fill="black"/>
<rect x="7.50012" y="7.5" width="30" height="30" stroke="#CFCEC4"/>
<rect x="22.5001" y="0.707107" width="30.82" height="30.82" transform="rotate(45 22.5001 0.707107)" stroke="#CFCEC4"/>
</svg>
