<svg width="68" height="69" viewBox="0 0 68 69" fill="none" xmlns="http://www.w3.org/2000/svg">
<path d="M34.0819 39.8C34.7005 39.8 35.2072 39.6133 35.6019 39.24C35.9965 38.856 36.1939 38.2853 36.1939 37.528C36.1939 36.8773 36.0392 36.3493 35.7299 35.944C35.4312 35.528 34.9245 35.32 34.2099 35.32C33.9005 35.32 33.6125 35.368 33.3459 35.464C33.0792 35.5493 32.8445 35.688 32.6419 35.88C32.4499 36.072 32.3005 36.312 32.1939 36.6C32.0872 36.8773 32.0499 37.208 32.0819 37.592C32.0819 37.88 32.1245 38.1573 32.2099 38.424C32.2952 38.6907 32.4179 38.9253 32.5779 39.128C32.7485 39.3307 32.9565 39.496 33.2019 39.624C33.4472 39.7413 33.7405 39.8 34.0819 39.8ZM36.0819 32.392C36.0072 32.2107 35.9325 32.056 35.8579 31.928C35.7939 31.8 35.7139 31.6933 35.6179 31.608C35.5219 31.512 35.4099 31.4373 35.2819 31.384C35.1539 31.32 34.9992 31.272 34.8179 31.24C34.6045 31.1973 34.3539 31.192 34.0659 31.224C33.3832 31.2773 32.8659 31.6293 32.5139 32.28C32.1619 32.9307 31.9645 33.8533 31.9219 35.048C32.2525 34.6427 32.6365 34.344 33.0739 34.152C33.5219 33.96 34.0339 33.8587 34.6099 33.848C35.1752 33.848 35.6659 33.9333 36.0819 34.104C36.5085 34.2747 36.8605 34.52 37.1379 34.84C37.4152 35.16 37.6232 35.544 37.7619 35.992C37.9005 36.44 37.9699 36.9413 37.9699 37.496C37.9699 38.1147 37.8685 38.664 37.6659 39.144C37.4632 39.6133 37.1859 40.008 36.8339 40.328C36.4819 40.648 36.0712 40.888 35.6019 41.048C35.1325 41.208 34.6259 41.288 34.0819 41.288C33.2819 41.288 32.6259 41.1333 32.1139 40.824C31.6125 40.5147 31.2125 40.1147 30.9139 39.624C30.6259 39.1333 30.4232 38.5893 30.3059 37.992C30.1992 37.384 30.1459 36.7867 30.1459 36.2C30.1459 34.9733 30.2579 33.944 30.4819 33.112C30.7059 32.2693 31.0099 31.592 31.3939 31.08C31.7779 30.568 32.2259 30.2 32.7379 29.976C33.2605 29.752 33.8152 29.64 34.4019 29.64C35.4579 29.64 36.2472 29.8587 36.7699 30.296C37.3032 30.7333 37.6552 31.4053 37.8259 32.312L36.1459 32.552L36.0819 32.392Z" fill="black"/>
<rect x="10.5002" y="11.2842" width="47" height="47" stroke="#CFCEC4"/>
<rect x="33.9412" y="1.55086" width="47" height="47" transform="rotate(45 33.9412 1.55086)" stroke="#CFCEC4"/>
</svg>
