<svg width="45" height="45" viewBox="0 0 45 45" fill="none" xmlns="http://www.w3.org/2000/svg">
<path d="M23.0612 26.1C23.5252 26.1 23.9052 25.96 24.2012 25.68C24.4972 25.392 24.6452 24.964 24.6452 24.396C24.6452 23.908 24.5292 23.512 24.2972 23.208C24.0732 22.896 23.6932 22.74 23.1572 22.74C22.9252 22.74 22.7092 22.776 22.5092 22.848C22.3092 22.912 22.1332 23.016 21.9812 23.16C21.8372 23.304 21.7252 23.484 21.6452 23.7C21.5652 23.908 21.5372 24.156 21.5612 24.444C21.5612 24.66 21.5932 24.868 21.6572 25.068C21.7212 25.268 21.8132 25.444 21.9332 25.596C22.0612 25.748 22.2172 25.872 22.4012 25.968C22.5852 26.056 22.8052 26.1 23.0612 26.1ZM24.5612 20.544C24.5052 20.408 24.4492 20.292 24.3932 20.196C24.3452 20.1 24.2852 20.02 24.2132 19.956C24.1412 19.884 24.0572 19.828 23.9612 19.788C23.8652 19.74 23.7492 19.704 23.6132 19.68C23.4532 19.648 23.2652 19.644 23.0492 19.668C22.5372 19.708 22.1492 19.972 21.8852 20.46C21.6212 20.948 21.4732 21.64 21.4412 22.536C21.6892 22.232 21.9772 22.008 22.3052 21.864C22.6412 21.72 23.0252 21.644 23.4572 21.636C23.8812 21.636 24.2492 21.7 24.5612 21.828C24.8812 21.956 25.1452 22.14 25.3532 22.38C25.5612 22.62 25.7172 22.908 25.8212 23.244C25.9252 23.58 25.9772 23.956 25.9772 24.372C25.9772 24.836 25.9012 25.248 25.7492 25.608C25.5972 25.96 25.3892 26.256 25.1252 26.496C24.8612 26.736 24.5532 26.916 24.2012 27.036C23.8492 27.156 23.4692 27.216 23.0612 27.216C22.4612 27.216 21.9692 27.1 21.5852 26.868C21.2092 26.636 20.9092 26.336 20.6852 25.968C20.4692 25.6 20.3172 25.192 20.2292 24.744C20.1492 24.288 20.1092 23.84 20.1092 23.4C20.1092 22.48 20.1932 21.708 20.3612 21.084C20.5292 20.452 20.7572 19.944 21.0452 19.56C21.3332 19.176 21.6692 18.9 22.0532 18.732C22.4452 18.564 22.8612 18.48 23.3012 18.48C24.0932 18.48 24.6852 18.644 25.0772 18.972C25.4772 19.3 25.7412 19.804 25.8692 20.484L24.6092 20.664L24.5612 20.544Z" fill="black"/>
<rect x="7.50012" y="7.5" width="30" height="30" stroke="#CFCEC4"/>
<rect x="22.5001" y="0.707107" width="30.82" height="30.82" transform="rotate(45 22.5001 0.707107)" stroke="#CFCEC4"/>
</svg>
