<svg width="45" height="45" viewBox="0 0 45 45" fill="none" xmlns="http://www.w3.org/2000/svg">
<path d="M21.3452 24.54C21.4012 25.084 21.5492 25.472 21.7892 25.704C22.0372 25.928 22.4292 26.04 22.9652 26.04C23.4372 26.04 23.8092 25.928 24.0812 25.704C24.3532 25.48 24.4892 25.124 24.4892 24.636C24.4892 24.164 24.3612 23.824 24.1052 23.616C23.8572 23.408 23.4892 23.304 23.0012 23.304H22.1012V22.092H23.0612C23.7492 22.092 24.1412 21.788 24.2372 21.18C24.2932 21.012 24.3092 20.812 24.2852 20.58C24.2372 20.26 24.0972 20.028 23.8652 19.884C23.6332 19.732 23.3332 19.656 22.9652 19.656C22.4852 19.656 22.1212 19.76 21.8732 19.968C21.6332 20.168 21.4532 20.496 21.3332 20.952L20.0372 20.772C20.1012 20.46 20.1972 20.168 20.3252 19.896C20.4612 19.616 20.6452 19.372 20.8772 19.164C21.1092 18.948 21.3932 18.78 21.7292 18.66C22.0732 18.54 22.4892 18.48 22.9772 18.48C23.4412 18.48 23.8452 18.54 24.1892 18.66C24.5332 18.78 24.8172 18.94 25.0412 19.14C25.2652 19.34 25.4292 19.572 25.5332 19.836C25.6452 20.1 25.7012 20.38 25.7012 20.676C25.7012 21.556 25.3172 22.196 24.5492 22.596C25.0292 22.796 25.3732 23.072 25.5812 23.424C25.7892 23.768 25.8932 24.156 25.8932 24.588C25.8932 25.404 25.6492 26.048 25.1612 26.52C24.6812 26.984 23.9572 27.216 22.9892 27.216C22.4132 27.216 21.9332 27.136 21.5492 26.976C21.1652 26.816 20.8572 26.608 20.6252 26.352C20.4012 26.096 20.2372 25.808 20.1332 25.488C20.0372 25.168 19.9812 24.852 19.9652 24.54H21.3452Z" fill="black"/>
<rect x="7.50012" y="7.5" width="30" height="30" stroke="#CFCEC4"/>
<rect x="22.5001" y="0.707107" width="30.82" height="30.82" transform="rotate(45 22.5001 0.707107)" stroke="#CFCEC4"/>
</svg>
