<svg width="68" height="69" viewBox="0 0 68 69" fill="none" xmlns="http://www.w3.org/2000/svg">
<path d="M32.0179 37.976C32.0605 38.264 32.1245 38.52 32.2099 38.744C32.3059 38.9573 32.4285 39.1387 32.5779 39.288C32.7379 39.4267 32.9352 39.5333 33.1699 39.608C33.4152 39.672 33.7085 39.704 34.0499 39.704C34.6579 39.704 35.1325 39.528 35.4739 39.176C35.8259 38.8133 36.0019 38.232 36.0019 37.432C36.0019 36.7387 35.8365 36.2107 35.5059 35.848C35.1859 35.4853 34.6899 35.304 34.0179 35.304C33.5699 35.304 33.1859 35.3787 32.8659 35.528C32.5459 35.6667 32.2579 35.8747 32.0019 36.152H30.4499L30.9779 29.944H37.1699V31.544H32.4819L32.2259 34.44C32.5245 34.2373 32.8552 34.0827 33.2179 33.976C33.5912 33.8693 33.9752 33.816 34.3699 33.816C34.9992 33.816 35.5325 33.9227 35.9699 34.136C36.4072 34.3387 36.7592 34.6107 37.0259 34.952C37.3032 35.2827 37.5005 35.6667 37.6179 36.104C37.7459 36.5307 37.8099 36.9627 37.8099 37.4C37.8099 38.072 37.7139 38.6533 37.5219 39.144C37.3405 39.624 37.0845 40.024 36.7539 40.344C36.4232 40.664 36.0285 40.8987 35.5699 41.048C35.1219 41.208 34.6365 41.288 34.1139 41.288C32.8979 41.288 31.9645 41.0213 31.3139 40.488C30.6632 39.944 30.2952 39.1067 30.2099 37.976H32.0179Z" fill="black"/>
<rect x="10.5002" y="11.2842" width="47" height="47" stroke="#CFCEC4"/>
<rect x="33.9412" y="1.55086" width="47" height="47" transform="rotate(45 33.9412 1.55086)" stroke="#CFCEC4"/>
</svg>
