<svg width="68" height="69" viewBox="0 0 68 69" fill="none" xmlns="http://www.w3.org/2000/svg">
<path d="M31.7936 37.72C31.8683 38.4453 32.0656 38.9627 32.3856 39.272C32.7163 39.5707 33.239 39.72 33.9536 39.72C34.583 39.72 35.079 39.5707 35.4416 39.272C35.8043 38.9733 35.9856 38.4987 35.9856 37.848C35.9856 37.2187 35.815 36.7653 35.4736 36.488C35.143 36.2107 34.6523 36.072 34.0016 36.072H32.8016V34.456H34.0816C34.999 34.456 35.5216 34.0507 35.6496 33.24C35.7243 33.016 35.7456 32.7493 35.7136 32.44C35.6496 32.0133 35.463 31.704 35.1536 31.512C34.8443 31.3093 34.4443 31.208 33.9536 31.208C33.3136 31.208 32.8283 31.3467 32.4976 31.624C32.1776 31.8907 31.9376 32.328 31.7776 32.936L30.0496 32.696C30.135 32.28 30.263 31.8907 30.4336 31.528C30.615 31.1547 30.8603 30.8293 31.1696 30.552C31.479 30.264 31.8576 30.04 32.3056 29.88C32.7643 29.72 33.319 29.64 33.9696 29.64C34.5883 29.64 35.127 29.72 35.5856 29.88C36.0443 30.04 36.423 30.2533 36.7216 30.52C37.0203 30.7867 37.239 31.096 37.3776 31.448C37.527 31.8 37.6016 32.1733 37.6016 32.568C37.6016 33.7413 37.0896 34.5947 36.0656 35.128C36.7056 35.3947 37.1643 35.7627 37.4416 36.232C37.719 36.6907 37.8576 37.208 37.8576 37.784C37.8576 38.872 37.5323 39.7307 36.8816 40.36C36.2416 40.9787 35.2763 41.288 33.9856 41.288C33.2176 41.288 32.5776 41.1813 32.0656 40.968C31.5536 40.7547 31.143 40.4773 30.8336 40.136C30.535 39.7947 30.3163 39.4107 30.1776 38.984C30.0496 38.5573 29.975 38.136 29.9536 37.72H31.7936Z" fill="black"/>
<rect x="10.5" y="11.2842" width="47" height="47" stroke="#CFCEC4"/>
<rect x="33.9409" y="1.55086" width="47" height="47" transform="rotate(45 33.9409 1.55086)" stroke="#CFCEC4"/>
</svg>
