<svg width="45" height="45" viewBox="0 0 45 45" fill="none" xmlns="http://www.w3.org/2000/svg">
<path d="M21.5132 24.732C21.5452 24.948 21.5932 25.14 21.6572 25.308C21.7292 25.468 21.8212 25.604 21.9332 25.716C22.0532 25.82 22.2012 25.9 22.3772 25.956C22.5612 26.004 22.7812 26.028 23.0372 26.028C23.4932 26.028 23.8492 25.896 24.1052 25.632C24.3692 25.36 24.5012 24.924 24.5012 24.324C24.5012 23.804 24.3772 23.408 24.1292 23.136C23.8892 22.864 23.5172 22.728 23.0132 22.728C22.6772 22.728 22.3892 22.784 22.1492 22.896C21.9092 23 21.6932 23.156 21.5012 23.364H20.3372L20.7332 18.708H25.3772V19.908H21.8612L21.6692 22.08C21.8932 21.928 22.1412 21.812 22.4132 21.732C22.6932 21.652 22.9812 21.612 23.2772 21.612C23.7492 21.612 24.1492 21.692 24.4772 21.852C24.8052 22.004 25.0692 22.208 25.2692 22.464C25.4772 22.712 25.6252 23 25.7132 23.328C25.8092 23.648 25.8572 23.972 25.8572 24.3C25.8572 24.804 25.7852 25.24 25.6412 25.608C25.5052 25.968 25.3132 26.268 25.0652 26.508C24.8172 26.748 24.5212 26.924 24.1772 27.036C23.8412 27.156 23.4772 27.216 23.0852 27.216C22.1732 27.216 21.4732 27.016 20.9852 26.616C20.4972 26.208 20.2212 25.58 20.1572 24.732H21.5132Z" fill="black"/>
<rect x="7.50012" y="7.5" width="30" height="30" stroke="#CFCEC4"/>
<rect x="22.5001" y="0.707107" width="30.82" height="30.82" transform="rotate(45 22.5001 0.707107)" stroke="#CFCEC4"/>
</svg>
