<svg width="503" height="503" viewBox="0 0 503 503" fill="none" xmlns="http://www.w3.org/2000/svg">
<path d="M129.488 219.866H140.928V280.906H130.448V241.786H129.648L124.048 257.066H119.488L113.888 241.786H113.088V280.906H102.608V219.866H114.048L121.328 240.426H122.208L129.488 219.866ZM192.903 230.266H179.623V270.506H192.903V280.906H154.583V270.506H167.943V230.266H154.583V219.866H192.903V230.266ZM246.158 219.866V224.826L235.118 250.106L246.158 275.946V280.906H235.358L226.238 258.186H225.038L216.078 280.906H205.278V275.946L216.318 250.106L205.278 224.826V219.866H216.078L225.198 242.346H226.318L235.358 219.866H246.158ZM296.853 230.266H283.573V270.506H296.853V280.906H258.533V270.506H271.893V230.266H258.533V219.866H296.853V230.266ZM337.068 219.866H348.828V280.906H337.068V257.066L322.188 238.266V280.906H310.508V219.866H322.188L337.068 238.746V219.866ZM401.683 238.666H390.003V237.546C390.003 232.506 386.723 229.306 381.843 229.306C376.323 229.306 373.283 232.826 373.283 237.546V263.066C373.283 267.786 376.323 271.306 381.843 271.306C386.723 271.306 390.003 268.106 390.003 263.066V256.986H382.483V247.466H401.683V263.866C401.683 274.346 393.763 281.706 381.843 281.706C370.003 281.706 361.683 274.586 361.683 263.866V236.746C361.683 226.266 369.763 218.906 381.843 218.906C393.763 218.906 401.683 226.266 401.683 236.746V238.666Z" fill="#FFFEF2"/>
<rect x="76.126" y="75.37" width="351.504" height="352.261" stroke="#595959" stroke-width="4"/>
<rect x="251.5" y="2.82843" width="351.675" height="351.675" transform="rotate(45 251.5 2.82843)" stroke="#CFCEC4" stroke-width="4"/>
<rect x="411.343" y="61.0067" width="351.675" height="351.675" transform="rotate(85 411.343 61.0067)" stroke="#CFCEC4" stroke-opacity="0.1" stroke-width="4"/>
<rect x="91.6569" y="61.0065" width="351.675" height="351.675" transform="rotate(5 91.6569 61.0065)" stroke="#CFCEC4" stroke-opacity="0.1" stroke-width="4"/>
</svg>
